<!DOCTYPE svg PUBLIC "-//W3C//DTD SVG 1.1//EN" "http://www.w3.org/Graphics/SVG/1.1/DTD/svg11.dtd">
<!-- Uploaded to: SVG Repo, www.svgrepo.com, Transformed by: SVG Repo Mixer Tools -->
<svg width="800px" height="800px" viewBox="0 0 24 24" xmlns="http://www.w3.org/2000/svg" fill="#18A558">
<g id="SVGRepo_bgCarrier" stroke-width="0"/>
<g id="SVGRepo_tracerCarrier" stroke-linecap="round" stroke-linejoin="round"/>
<g id="SVGRepo_iconCarrier">
<path d="M12,2A10,10,0,1,0,22,12,10,10,0,0,0,12,2Zm0,18a8,8,0,1,1,8-8A8,8,0,0,1,12,20Zm6-7.25a1.25,1.25,0,1,1-1.25-1.25A1.25,1.25,0,0,1,18,12.75ZM13.5,16.5A1.5,1.5,0,1,1,12,15,1.5,1.5,0,0,1,13.5,16.5Zm-5-3.75A1.25,1.25,0,1,1,7.25,11.5,1.25,1.25,0,0,1,8.5,12.75ZM9.5,10A1.5,1.5,0,1,1,11,8.5,1.5,1.5,0,0,1,9.5,10Zm5,0A1.5,1.5,0,1,1,16,8.5,1.5,1.5,0,0,1,14.5,10Z"/>
<rect width="24" height="24" fill="none"/>
</g>
</svg>